<svg width="101" height="30" viewBox="0 0 101 30" fill="none" xmlns="http://www.w3.org/2000/svg">
<path d="M43.8271 8.35645V14.8818L51.2285 7.16309C51.584 6.79069 51.8844 6.51562 52.1299 6.33789C52.3838 6.16016 52.7181 6.07129 53.1328 6.07129C53.6745 6.07129 54.1104 6.2321 54.4404 6.55371C54.779 6.86686 54.9482 7.25195 54.9482 7.70898C54.9482 8.25911 54.6647 8.80501 54.0977 9.34668L49.5146 13.6885L54.7959 21.2549C55.1683 21.7796 55.4476 22.2409 55.6338 22.6387C55.82 23.028 55.9131 23.4089 55.9131 23.7812C55.9131 24.196 55.748 24.5557 55.418 24.8604C55.0964 25.165 54.6562 25.3174 54.0977 25.3174C53.5729 25.3174 53.1455 25.2074 52.8154 24.9873C52.4854 24.7588 52.2061 24.4583 51.9775 24.0859C51.749 23.7135 51.5459 23.375 51.3682 23.0703L46.9121 16.2148L43.8271 19.1729V23.0195C43.8271 23.7982 43.6494 24.3779 43.2939 24.7588C42.9385 25.1312 42.4814 25.3174 41.9229 25.3174C41.6012 25.3174 41.2923 25.2327 40.9961 25.0635C40.6999 24.8942 40.4714 24.6657 40.3105 24.3779C40.1921 24.141 40.1201 23.8659 40.0947 23.5527C40.0693 23.2396 40.0566 22.7868 40.0566 22.1943V8.35645C40.0566 7.59473 40.2217 7.02344 40.5518 6.64258C40.8903 6.26172 41.3473 6.07129 41.9229 6.07129C42.4899 6.07129 42.9469 6.26172 43.2939 6.64258C43.6494 7.01497 43.8271 7.58626 43.8271 8.35645ZM66.9397 19.1221H60.1604C60.1689 19.9092 60.3255 20.6032 60.6302 21.2041C60.9433 21.805 61.3538 22.2578 61.8616 22.5625C62.3779 22.8672 62.9449 23.0195 63.5628 23.0195C63.9775 23.0195 64.3541 22.973 64.6927 22.8799C65.0397 22.7783 65.374 22.626 65.6956 22.4229C66.0172 22.2113 66.3134 21.987 66.5843 21.75C66.8551 21.513 67.2063 21.1914 67.638 20.7852C67.8157 20.6328 68.0696 20.5566 68.3997 20.5566C68.7552 20.5566 69.0429 20.654 69.263 20.8486C69.483 21.0433 69.593 21.3184 69.593 21.6738C69.593 21.987 69.4703 22.3551 69.2249 22.7783C68.9794 23.193 68.607 23.5951 68.1077 23.9844C67.6168 24.3652 66.9947 24.6826 66.2415 24.9365C65.4967 25.1904 64.6376 25.3174 63.6643 25.3174C61.4384 25.3174 59.7076 24.6826 58.472 23.4131C57.2363 22.1436 56.6184 20.4212 56.6184 18.2461C56.6184 17.222 56.7708 16.2741 57.0755 15.4023C57.3802 14.5221 57.8245 13.7689 58.4085 13.1426C58.9925 12.5163 59.7119 12.0381 60.5667 11.708C61.4215 11.3695 62.3694 11.2002 63.4104 11.2002C64.7646 11.2002 65.9241 11.488 66.8889 12.0635C67.8623 12.6305 68.5901 13.3669 69.0725 14.2725C69.555 15.1781 69.7962 16.1006 69.7962 17.04C69.7962 17.9118 69.5465 18.4788 69.0471 18.7412C68.5478 18.9951 67.8453 19.1221 66.9397 19.1221ZM60.1604 17.1543H66.4446C66.36 15.9694 66.0384 15.085 65.4798 14.501C64.9296 13.9085 64.2018 13.6123 63.2962 13.6123C62.4329 13.6123 61.722 13.9128 61.1634 14.5137C60.6132 15.1061 60.2789 15.9863 60.1604 17.1543ZM81.6226 19.1221H74.8433C74.8518 19.9092 75.0084 20.6032 75.313 21.2041C75.6262 21.805 76.0367 22.2578 76.5445 22.5625C77.0608 22.8672 77.6278 23.0195 78.2457 23.0195C78.6604 23.0195 79.037 22.973 79.3755 22.8799C79.7226 22.7783 80.0569 22.626 80.3785 22.4229C80.7001 22.2113 80.9963 21.987 81.2671 21.75C81.538 21.513 81.8892 21.1914 82.3209 20.7852C82.4986 20.6328 82.7525 20.5566 83.0826 20.5566C83.438 20.5566 83.7258 20.654 83.9459 20.8486C84.1659 21.0433 84.2759 21.3184 84.2759 21.6738C84.2759 21.987 84.1532 22.3551 83.9078 22.7783C83.6623 23.193 83.2899 23.5951 82.7906 23.9844C82.2997 24.3652 81.6776 24.6826 80.9244 24.9365C80.1796 25.1904 79.3205 25.3174 78.3472 25.3174C76.1213 25.3174 74.3905 24.6826 73.1548 23.4131C71.9192 22.1436 71.3013 20.4212 71.3013 18.2461C71.3013 17.222 71.4537 16.2741 71.7584 15.4023C72.063 14.5221 72.5074 13.7689 73.0914 13.1426C73.6754 12.5163 74.3948 12.0381 75.2496 11.708C76.1044 11.3695 77.0523 11.2002 78.0933 11.2002C79.4475 11.2002 80.607 11.488 81.5718 12.0635C82.5451 12.6305 83.273 13.3669 83.7554 14.2725C84.2379 15.1781 84.4791 16.1006 84.4791 17.04C84.4791 17.9118 84.2294 18.4788 83.73 18.7412C83.2307 18.9951 82.5282 19.1221 81.6226 19.1221ZM74.8433 17.1543H81.1275C81.0429 15.9694 80.7212 15.085 80.1627 14.501C79.6125 13.9085 78.8847 13.6123 77.9791 13.6123C77.1158 13.6123 76.4048 13.9128 75.8462 14.5137C75.2961 15.1061 74.9618 15.9863 74.8433 17.1543ZM89.7801 13.1426V13.5615C90.3895 12.7575 91.0539 12.1693 91.7733 11.7969C92.5011 11.416 93.3348 11.2256 94.2743 11.2256C95.1883 11.2256 96.0051 11.4245 96.7245 11.8223C97.4439 12.2201 97.9813 12.7829 98.3368 13.5107C98.5653 13.9339 98.7134 14.391 98.7811 14.8818C98.8488 15.3727 98.8827 15.999 98.8827 16.7607V23.21C98.8827 23.904 98.7218 24.4287 98.4002 24.7842C98.0871 25.1396 97.6766 25.3174 97.1688 25.3174C96.6525 25.3174 96.2336 25.1354 95.912 24.7715C95.5903 24.4076 95.4295 23.887 95.4295 23.21V17.4336C95.4295 16.291 95.2687 15.4193 94.9471 14.8184C94.634 14.209 94.0034 13.9043 93.0555 13.9043C92.4377 13.9043 91.8748 14.0905 91.367 14.4629C90.8592 14.8268 90.4868 15.3304 90.2498 15.9736C90.0806 16.4899 89.9959 17.4548 89.9959 18.8682V23.21C89.9959 23.9124 89.8309 24.4414 89.5008 24.7969C89.1792 25.1439 88.7603 25.3174 88.244 25.3174C87.7446 25.3174 87.3342 25.1354 87.0125 24.7715C86.6909 24.4076 86.5301 23.887 86.5301 23.21V13.1934C86.5301 12.5332 86.674 12.0423 86.9618 11.7207C87.2495 11.3906 87.6431 11.2256 88.1424 11.2256C88.4471 11.2256 88.7222 11.2975 88.9676 11.4414C89.2131 11.5853 89.4077 11.8011 89.5516 12.0889C89.7039 12.3766 89.7801 12.7279 89.7801 13.1426Z" fill="#2A3B8E"/>
<path fill-rule="evenodd" clip-rule="evenodd" d="M25.5582 22.0404C26.3936 22.8789 27.7899 22.8194 28.3841 21.7958C29.7108 19.5104 30 17.3051 30 15C30 12.6579 29.4334 9.96066 28.2778 7.94944C27.7382 7.01028 26.4876 6.98153 25.6952 7.72L20.2582 12.7869C18.8862 14.2623 18.8862 15.2459 20.2582 16.7213L25.5582 22.0404ZM23.0712 24.6448C23.94 25.4349 23.9488 26.8122 22.9777 27.4726C20.6303 29.069 17.8072 30 14.77 30C6.61274 30 0 23.2843 0 15C0 6.71573 6.61274 0 14.77 0C17.6974 0 20.4259 0.864935 22.7213 2.3569C23.7022 2.99447 23.7265 4.36517 22.8827 5.17547L16.6417 11.1685C16.2172 11.5761 15.6551 11.8033 15.0709 11.8033C13.8081 11.8033 12.7845 10.7637 12.7845 9.48132V7.37705C12.7845 6.22407 11.8739 5.2894 10.7506 5.2894C9.62731 5.2894 8.71671 6.22407 8.71671 7.37705V22.9943C8.71671 24.1473 9.62731 25.082 10.7506 25.082C11.8739 25.082 12.7845 24.1473 12.7845 22.9943V20.5449C12.7845 19.2481 13.8197 18.1967 15.0967 18.1967C15.6659 18.1967 16.2151 18.4099 16.6391 18.7956L23.0712 24.6448Z" fill="#4B5BA6"/>
</svg>