<svg width="356.161" height="152.465" viewBox="0 0 356.161 152.465" xmlns="http://www.w3.org/2000/svg"><g id="svgGroup" stroke-linecap="round" fill-rule="evenodd" font-size="9pt" stroke="#000000" stroke-width="0.25mm" fill="#000000" style="stroke:#000000;stroke-width:0.25mm;fill:#000000"><path d="M 97.86 95.343 L 107.31 95.343 Q 110.643 95.343 111.331 97.987 A 6.188 6.188 0 0 1 111.51 99.543 L 111.51 118.653 Q 111.51 121.985 108.866 122.674 A 6.188 6.188 0 0 1 107.31 122.853 L 97.86 122.853 L 97.86 145.533 Q 97.86 148.865 95.216 149.554 A 6.188 6.188 0 0 1 93.66 149.733 L 65.31 149.733 Q 61.978 149.733 61.29 147.088 A 6.188 6.188 0 0 1 61.11 145.533 L 61.11 122.853 L 4.2 122.853 Q 0.868 122.853 0.18 120.208 A 6.188 6.188 0 0 1 0 118.653 L 0 101.223 Q 0 98.493 1.26 95.973 L 50.61 5.673 A 5.26 5.26 0 0 1 52.206 3.729 Q 53.21 2.997 54.597 2.803 A 7.596 7.596 0 0 1 55.65 2.733 L 93.66 2.733 Q 96.993 2.733 97.681 5.377 A 6.188 6.188 0 0 1 97.86 6.933 L 97.86 95.343 Z M 342.51 95.343 L 351.96 95.343 Q 355.293 95.343 355.981 97.987 A 6.188 6.188 0 0 1 356.16 99.543 L 356.16 118.653 Q 356.16 121.985 353.516 122.674 A 6.188 6.188 0 0 1 351.96 122.853 L 342.51 122.853 L 342.51 145.533 Q 342.51 148.865 339.866 149.554 A 6.188 6.188 0 0 1 338.31 149.733 L 309.96 149.733 Q 306.628 149.733 305.94 147.088 A 6.188 6.188 0 0 1 305.76 145.533 L 305.76 122.853 L 248.85 122.853 Q 245.518 122.853 244.83 120.208 A 6.188 6.188 0 0 1 244.65 118.653 L 244.65 101.223 Q 244.65 98.493 245.91 95.973 L 295.26 5.673 A 5.26 5.26 0 0 1 296.856 3.729 Q 297.86 2.997 299.247 2.803 A 7.596 7.596 0 0 1 300.3 2.733 L 338.31 2.733 Q 341.643 2.733 342.331 5.377 A 6.188 6.188 0 0 1 342.51 6.933 L 342.51 95.343 Z M 194.23 150.638 A 39.591 39.591 0 0 0 218.715 133.773 A 50.193 50.193 0 0 0 220.976 129.97 Q 227.879 117.131 230.029 96.491 A 196.277 196.277 0 0 0 231 76.233 A 233.277 233.277 0 0 0 230.946 71.168 Q 230.466 49.038 225.71 33.924 A 60.878 60.878 0 0 0 218.715 18.693 Q 210.078 5.551 193.497 1.65 A 67.33 67.33 0 0 0 178.08 0.003 A 85.026 85.026 0 0 0 176.952 0.01 Q 149.487 0.375 137.55 18.588 Q 128.796 31.946 126.334 55.881 A 199.607 199.607 0 0 0 125.37 76.233 A 235.287 235.287 0 0 0 125.424 81.298 Q 125.901 103.427 130.616 118.541 A 61.124 61.124 0 0 0 137.55 133.773 Q 146.115 146.914 162.673 150.815 A 67.209 67.209 0 0 0 178.08 152.463 A 84.592 84.592 0 0 0 179.182 152.456 Q 187.395 152.349 194.23 150.638 Z M 171.885 122.223 A 12.412 12.412 0 0 0 175.138 123.242 A 17.105 17.105 0 0 0 178.08 123.483 A 17.105 17.105 0 0 0 181.023 123.242 A 12.412 12.412 0 0 0 184.275 122.223 A 8.651 8.651 0 0 0 187.172 119.928 A 12.291 12.291 0 0 0 188.58 117.813 Q 190.26 114.663 191.205 111.408 Q 191.995 108.689 192.491 103.92 A 103.081 103.081 0 0 0 192.675 101.958 Q 193.2 95.763 193.305 90.513 A 394.769 394.769 0 0 0 193.351 87.651 Q 193.41 83.005 193.41 76.233 A 1302.57 1302.57 0 0 0 193.404 71.974 Q 193.39 67.845 193.349 64.806 A 334.403 334.403 0 0 0 193.305 62.268 Q 193.2 57.333 192.78 50.928 A 79.873 79.873 0 0 0 192.494 47.574 Q 192.145 44.343 191.579 42.192 A 17.532 17.532 0 0 0 191.31 41.268 A 50.511 50.511 0 0 0 188.783 34.961 A 55.162 55.162 0 0 0 188.685 34.758 A 11.259 11.259 0 0 0 187.279 32.519 A 8.117 8.117 0 0 0 184.38 30.243 A 13.458 13.458 0 0 0 180.741 29.175 A 17.722 17.722 0 0 0 178.08 28.983 A 17.105 17.105 0 0 0 175.138 29.224 A 12.412 12.412 0 0 0 171.885 30.243 A 8.371 8.371 0 0 0 169.134 32.404 Q 168.333 33.343 167.674 34.58 A 15.065 15.065 0 0 0 167.58 34.758 A 37.04 37.04 0 0 0 165.353 39.996 A 33.154 33.154 0 0 0 164.955 41.268 Q 164.166 43.986 163.743 48.902 A 99.871 99.871 0 0 0 163.59 50.928 Q 163.23 56.432 163.101 60.851 A 182.848 182.848 0 0 0 163.065 62.268 A 340.273 340.273 0 0 0 163.02 64.991 Q 162.96 69.46 162.96 76.233 A 1320.903 1320.903 0 0 0 162.967 80.511 Q 162.981 84.68 163.022 87.844 A 388.774 388.774 0 0 0 163.065 90.513 A 212.716 212.716 0 0 0 163.249 95.999 A 273.442 273.442 0 0 0 163.59 101.958 A 75.135 75.135 0 0 0 163.895 105.377 Q 164.322 109.119 165.06 111.408 Q 166.11 114.663 167.685 117.813 A 11.421 11.421 0 0 0 169.123 120.042 A 8.22 8.22 0 0 0 171.885 122.223 Z M 60.48 48.513 L 35.07 95.343 L 61.11 95.343 L 61.11 48.513 L 60.48 48.513 Z M 305.13 48.513 L 279.72 95.343 L 305.76 95.343 L 305.76 48.513 L 305.13 48.513 Z" vector-effect="non-scaling-stroke"/></g></svg>