<svg width="349.27" height="152.465" viewBox="0 0 349.27 152.465" xmlns="http://www.w3.org/2000/svg"><g id="svgGroup" stroke-linecap="round" fill-rule="evenodd" font-size="9pt" stroke="#000000" stroke-width="0.25mm" fill="#000000" style="stroke:#000000;stroke-width:0.25mm;fill:#000000"><path d="M 4.027 103.113 L 32.377 103.113 Q 36.101 103.113 36.564 107.189 A 9.285 9.285 0 0 1 36.577 107.313 Q 37.627 115.923 42.037 120.333 Q 46.447 124.743 53.167 124.743 A 15.55 15.55 0 0 0 61.164 122.795 Q 67.438 119.118 68.896 108.5 A 52.155 52.155 0 0 0 69.337 101.433 Q 69.337 89.253 65.452 84.003 Q 61.843 79.126 54.157 78.779 A 26.642 26.642 0 0 0 52.957 78.753 A 24.636 24.636 0 0 0 46.517 79.544 A 16.692 16.692 0 0 0 36.997 86.103 Q 35.107 89.043 31.957 89.043 L 5.497 88.203 A 5.742 5.742 0 0 1 3.902 88.001 Q 1.342 87.259 1.507 83.793 L 7.177 6.723 A 6.278 6.278 0 0 1 7.559 5.072 Q 8.292 3.217 10.263 2.833 A 5.829 5.829 0 0 1 11.377 2.733 L 98.107 2.733 Q 101.44 2.733 102.128 5.377 A 6.188 6.188 0 0 1 102.307 6.933 L 102.307 27.093 Q 102.307 30.425 99.663 31.114 A 6.188 6.188 0 0 1 98.107 31.293 L 39.097 31.293 L 36.997 60.903 Q 49.597 53.973 64.507 53.973 A 50.09 50.09 0 0 1 77.734 55.627 A 36.393 36.393 0 0 1 95.797 66.783 A 43.449 43.449 0 0 1 105.372 85.528 Q 106.999 92.13 107.126 99.898 A 80.976 80.976 0 0 1 107.137 101.223 A 64.074 64.074 0 0 1 105.279 117.101 A 44.385 44.385 0 0 1 92.752 138.813 A 47.435 47.435 0 0 1 72.038 150.122 Q 64.712 152.097 56.015 152.406 A 92.184 92.184 0 0 1 52.747 152.463 A 71.074 71.074 0 0 1 36.093 150.61 A 51.349 51.349 0 0 1 15.997 141.018 A 40.497 40.497 0 0 1 1.894 119.087 A 59.746 59.746 0 0 1 0.037 107.523 A 8.175 8.175 0 0 1 0.006 107.056 Q -0.143 103.113 4.027 103.113 Z M 246.367 103.323 L 274.717 103.323 Q 278.441 103.323 278.904 107.399 A 9.285 9.285 0 0 1 278.917 107.523 A 30.922 30.922 0 0 0 280.486 114.39 Q 284.272 124.743 295.507 124.743 A 18.922 18.922 0 0 0 300.752 124.052 A 14.313 14.313 0 0 0 307.267 120.123 A 14.016 14.016 0 0 0 310.243 115.183 Q 311.038 113.008 311.393 110.307 A 36.014 36.014 0 0 0 311.677 105.633 Q 311.677 96.393 307.477 92.403 A 12.396 12.396 0 0 0 303.297 89.857 Q 299.512 88.413 293.827 88.413 L 281.017 88.413 Q 277.684 88.413 276.996 85.768 A 6.188 6.188 0 0 1 276.817 84.213 L 276.817 66.783 Q 276.817 63.45 279.462 62.762 A 6.188 6.188 0 0 1 281.017 62.583 L 294.247 62.583 Q 307.647 62.583 310.359 51.495 A 26.754 26.754 0 0 0 311.047 45.153 A 29.229 29.229 0 0 0 310.374 38.575 Q 308.284 29.559 299.695 28.033 A 21.559 21.559 0 0 0 295.927 27.723 A 18.195 18.195 0 0 0 288.742 29.047 Q 280.645 32.499 279.127 44.943 Q 278.75 48.714 275.663 49.099 A 5.954 5.954 0 0 1 274.927 49.143 L 246.577 49.143 A 5.742 5.742 0 0 1 244.982 48.941 Q 242.422 48.199 242.587 44.733 A 54.905 54.905 0 0 1 245.486 30.067 A 40.271 40.271 0 0 1 258.652 11.553 Q 273.247 0.003 295.927 0.003 A 88.927 88.927 0 0 1 310.783 1.167 Q 324.835 3.551 334.147 10.818 Q 348.007 21.633 348.007 41.793 Q 348.007 64.92 328.997 74.328 A 44.626 44.626 0 0 1 327.637 74.973 Q 345.96 82.978 348.762 101.833 A 48.71 48.71 0 0 1 349.267 108.993 A 47.373 47.373 0 0 1 347.382 122.715 A 35.968 35.968 0 0 1 334.672 141.123 A 50.569 50.569 0 0 1 316.913 149.802 Q 307.3 152.463 295.297 152.463 A 72.842 72.842 0 0 1 278.996 150.735 A 50.781 50.781 0 0 1 258.232 140.913 A 41.162 41.162 0 0 1 243.919 117.918 A 59.529 59.529 0 0 1 242.377 107.733 A 8.175 8.175 0 0 1 242.346 107.266 Q 242.197 103.323 246.367 103.323 Z M 189.017 150.638 A 39.591 39.591 0 0 0 213.502 133.773 A 50.193 50.193 0 0 0 215.763 129.97 Q 222.666 117.131 224.815 96.491 A 196.277 196.277 0 0 0 225.787 76.233 A 233.277 233.277 0 0 0 225.733 71.168 Q 225.252 49.038 220.497 33.924 A 60.878 60.878 0 0 0 213.502 18.693 Q 204.864 5.551 188.284 1.65 A 67.33 67.33 0 0 0 172.867 0.003 A 85.026 85.026 0 0 0 171.739 0.01 Q 144.273 0.375 132.337 18.588 Q 123.583 31.946 121.121 55.881 A 199.607 199.607 0 0 0 120.157 76.233 A 235.287 235.287 0 0 0 120.211 81.298 Q 120.687 103.427 125.403 118.541 A 61.124 61.124 0 0 0 132.337 133.773 Q 140.901 146.914 157.46 150.815 A 67.209 67.209 0 0 0 172.867 152.463 A 84.592 84.592 0 0 0 173.969 152.456 Q 182.182 152.349 189.017 150.638 Z M 166.672 122.223 A 12.412 12.412 0 0 0 169.924 123.242 A 17.105 17.105 0 0 0 172.867 123.483 A 17.105 17.105 0 0 0 175.81 123.242 A 12.412 12.412 0 0 0 179.062 122.223 A 8.651 8.651 0 0 0 181.958 119.928 A 12.291 12.291 0 0 0 183.367 117.813 Q 185.047 114.663 185.992 111.408 Q 186.781 108.689 187.278 103.92 A 103.081 103.081 0 0 0 187.462 101.958 Q 187.987 95.763 188.092 90.513 A 394.769 394.769 0 0 0 188.138 87.651 Q 188.197 83.005 188.197 76.233 A 1302.57 1302.57 0 0 0 188.191 71.974 Q 188.177 67.845 188.136 64.806 A 334.403 334.403 0 0 0 188.092 62.268 Q 187.987 57.333 187.567 50.928 A 79.873 79.873 0 0 0 187.281 47.574 Q 186.932 44.343 186.366 42.192 A 17.532 17.532 0 0 0 186.097 41.268 A 50.511 50.511 0 0 0 183.57 34.961 A 55.162 55.162 0 0 0 183.472 34.758 A 11.259 11.259 0 0 0 182.066 32.519 A 8.117 8.117 0 0 0 179.167 30.243 A 13.458 13.458 0 0 0 175.528 29.175 A 17.722 17.722 0 0 0 172.867 28.983 A 17.105 17.105 0 0 0 169.924 29.224 A 12.412 12.412 0 0 0 166.672 30.243 A 8.371 8.371 0 0 0 163.92 32.404 Q 163.12 33.343 162.46 34.58 A 15.065 15.065 0 0 0 162.367 34.758 A 37.04 37.04 0 0 0 160.139 39.996 A 33.154 33.154 0 0 0 159.742 41.268 Q 158.953 43.986 158.53 48.902 A 99.871 99.871 0 0 0 158.377 50.928 Q 158.016 56.432 157.888 60.851 A 182.848 182.848 0 0 0 157.852 62.268 A 340.273 340.273 0 0 0 157.806 64.991 Q 157.747 69.46 157.747 76.233 A 1320.903 1320.903 0 0 0 157.754 80.511 Q 157.767 84.68 157.809 87.844 A 388.774 388.774 0 0 0 157.852 90.513 A 212.716 212.716 0 0 0 158.036 95.999 A 273.442 273.442 0 0 0 158.377 101.958 A 75.135 75.135 0 0 0 158.682 105.377 Q 159.109 109.119 159.847 111.408 Q 160.897 114.663 162.472 117.813 A 11.421 11.421 0 0 0 163.91 120.042 A 8.22 8.22 0 0 0 166.672 122.223 Z" vector-effect="non-scaling-stroke"/></g></svg>